<mxfile host="app.diagrams.net" modified="2021-04-16T23:12:03.967Z" agent="5.0 (Windows NT 10.0; WOW64) AppleWebKit/537.36 (KHTML, like Gecko) Chrome/74.0.3713.0 Safari/537.36" etag="PF19UFygjpnT4xFHvigE" version="14.6.1" type="github" pages="3">
  <diagram id="qhB91ac1aL0edQpOzo5Z" name="第 1 页">
    <mxGraphModel dx="1038" dy="499" grid="1" gridSize="10" guides="1" tooltips="1" connect="1" arrows="1" fold="1" page="1" pageScale="1" pageWidth="827" pageHeight="1169" math="0" shadow="0">
      <root>
        <mxCell id="0" />
        <mxCell id="1" parent="0" />
        <mxCell id="hPvDuQgGdmHGIpQ8MO-r-20" value="" style="shape=table;html=1;whiteSpace=wrap;startSize=0;container=1;collapsible=0;childLayout=tableLayout;strokeWidth=2;" parent="1" vertex="1">
          <mxGeometry x="140" y="200" width="420" height="40" as="geometry" />
        </mxCell>
        <mxCell id="hPvDuQgGdmHGIpQ8MO-r-21" value="" style="shape=partialRectangle;html=1;whiteSpace=wrap;collapsible=0;dropTarget=0;pointerEvents=0;fillColor=none;top=0;left=0;bottom=0;right=0;points=[[0,0.5],[1,0.5]];portConstraint=eastwest;" parent="hPvDuQgGdmHGIpQ8MO-r-20" vertex="1">
          <mxGeometry width="420" height="40" as="geometry" />
        </mxCell>
        <mxCell id="hPvDuQgGdmHGIpQ8MO-r-22" value="&lt;b&gt;&lt;font style=&quot;font-size: 14px&quot;&gt;null&lt;/font&gt;&lt;/b&gt;" style="shape=partialRectangle;html=1;whiteSpace=wrap;connectable=0;overflow=hidden;fillColor=none;top=0;left=0;bottom=0;right=0;" parent="hPvDuQgGdmHGIpQ8MO-r-21" vertex="1">
          <mxGeometry width="60" height="40" as="geometry" />
        </mxCell>
        <mxCell id="hPvDuQgGdmHGIpQ8MO-r-23" value="&lt;b&gt;&lt;font style=&quot;font-size: 14px&quot;&gt;null&lt;/font&gt;&lt;/b&gt;" style="shape=partialRectangle;html=1;whiteSpace=wrap;connectable=0;overflow=hidden;fillColor=none;top=0;left=0;bottom=0;right=0;" parent="hPvDuQgGdmHGIpQ8MO-r-21" vertex="1">
          <mxGeometry x="60" width="60" height="40" as="geometry" />
        </mxCell>
        <mxCell id="hPvDuQgGdmHGIpQ8MO-r-24" value="&lt;font style=&quot;font-size: 14px&quot;&gt;&lt;b&gt;entry&lt;/b&gt;&lt;/font&gt;" style="shape=partialRectangle;html=1;whiteSpace=wrap;connectable=0;overflow=hidden;fillColor=none;top=0;left=0;bottom=0;right=0;" parent="hPvDuQgGdmHGIpQ8MO-r-21" vertex="1">
          <mxGeometry x="120" width="60" height="40" as="geometry" />
        </mxCell>
        <mxCell id="hPvDuQgGdmHGIpQ8MO-r-25" value="&lt;font style=&quot;font-size: 14px&quot;&gt;&lt;b&gt;null&lt;/b&gt;&lt;/font&gt;" style="shape=partialRectangle;html=1;whiteSpace=wrap;connectable=0;overflow=hidden;fillColor=none;top=0;left=0;bottom=0;right=0;" parent="hPvDuQgGdmHGIpQ8MO-r-21" vertex="1">
          <mxGeometry x="180" width="60" height="40" as="geometry" />
        </mxCell>
        <mxCell id="hPvDuQgGdmHGIpQ8MO-r-26" value="&lt;font style=&quot;font-size: 14px&quot;&gt;&lt;b&gt;entry&lt;/b&gt;&lt;/font&gt;" style="shape=partialRectangle;html=1;whiteSpace=wrap;connectable=0;overflow=hidden;fillColor=none;top=0;left=0;bottom=0;right=0;" parent="hPvDuQgGdmHGIpQ8MO-r-21" vertex="1">
          <mxGeometry x="240" width="60" height="40" as="geometry" />
        </mxCell>
        <mxCell id="hPvDuQgGdmHGIpQ8MO-r-27" value="&lt;font style=&quot;font-size: 14px&quot;&gt;&lt;b&gt;entry&lt;/b&gt;&lt;/font&gt;" style="shape=partialRectangle;html=1;whiteSpace=wrap;connectable=0;overflow=hidden;fillColor=none;top=0;left=0;bottom=0;right=0;" parent="hPvDuQgGdmHGIpQ8MO-r-21" vertex="1">
          <mxGeometry x="300" width="60" height="40" as="geometry" />
        </mxCell>
        <mxCell id="hPvDuQgGdmHGIpQ8MO-r-28" value="&lt;font style=&quot;font-size: 14px&quot;&gt;&lt;b&gt;null&lt;/b&gt;&lt;/font&gt;" style="shape=partialRectangle;html=1;whiteSpace=wrap;connectable=0;overflow=hidden;fillColor=none;top=0;left=0;bottom=0;right=0;" parent="hPvDuQgGdmHGIpQ8MO-r-21" vertex="1">
          <mxGeometry x="360" width="60" height="40" as="geometry" />
        </mxCell>
        <mxCell id="hPvDuQgGdmHGIpQ8MO-r-29" value="0" style="text;html=1;strokeColor=none;fillColor=none;align=center;verticalAlign=middle;whiteSpace=wrap;rounded=0;" parent="1" vertex="1">
          <mxGeometry x="150" y="170" width="40" height="20" as="geometry" />
        </mxCell>
        <mxCell id="hPvDuQgGdmHGIpQ8MO-r-30" value="1" style="text;html=1;strokeColor=none;fillColor=none;align=center;verticalAlign=middle;whiteSpace=wrap;rounded=0;" parent="1" vertex="1">
          <mxGeometry x="200" y="170" width="40" height="20" as="geometry" />
        </mxCell>
        <mxCell id="hPvDuQgGdmHGIpQ8MO-r-31" value="2" style="text;html=1;strokeColor=none;fillColor=none;align=center;verticalAlign=middle;whiteSpace=wrap;rounded=0;" parent="1" vertex="1">
          <mxGeometry x="270" y="170" width="40" height="20" as="geometry" />
        </mxCell>
        <mxCell id="hPvDuQgGdmHGIpQ8MO-r-32" value="3" style="text;html=1;strokeColor=none;fillColor=none;align=center;verticalAlign=middle;whiteSpace=wrap;rounded=0;" parent="1" vertex="1">
          <mxGeometry x="320" y="170" width="40" height="20" as="geometry" />
        </mxCell>
        <mxCell id="hPvDuQgGdmHGIpQ8MO-r-34" value="4" style="text;html=1;strokeColor=none;fillColor=none;align=center;verticalAlign=middle;whiteSpace=wrap;rounded=0;" parent="1" vertex="1">
          <mxGeometry x="380" y="170" width="40" height="20" as="geometry" />
        </mxCell>
        <mxCell id="hPvDuQgGdmHGIpQ8MO-r-35" value="5" style="text;html=1;strokeColor=none;fillColor=none;align=center;verticalAlign=middle;whiteSpace=wrap;rounded=0;" parent="1" vertex="1">
          <mxGeometry x="450" y="170" width="40" height="20" as="geometry" />
        </mxCell>
        <mxCell id="hPvDuQgGdmHGIpQ8MO-r-36" value="6" style="text;html=1;strokeColor=none;fillColor=none;align=center;verticalAlign=middle;whiteSpace=wrap;rounded=0;" parent="1" vertex="1">
          <mxGeometry x="510" y="170" width="40" height="20" as="geometry" />
        </mxCell>
        <mxCell id="hPvDuQgGdmHGIpQ8MO-r-37" value="" style="endArrow=classic;html=1;strokeColor=#FF0000;" parent="1" edge="1">
          <mxGeometry width="50" height="50" relative="1" as="geometry">
            <mxPoint x="160" y="310" as="sourcePoint" />
            <mxPoint x="220" y="250" as="targetPoint" />
          </mxGeometry>
        </mxCell>
        <mxCell id="hPvDuQgGdmHGIpQ8MO-r-38" value="&lt;b&gt;&lt;font color=&quot;#cc0000&quot; style=&quot;font-size: 18px&quot;&gt;i&lt;/font&gt;&lt;/b&gt;" style="text;html=1;strokeColor=none;fillColor=none;align=center;verticalAlign=middle;whiteSpace=wrap;rounded=0;" parent="1" vertex="1">
          <mxGeometry x="130" y="310" width="40" height="20" as="geometry" />
        </mxCell>
        <mxCell id="whk0w1-pNkVPC_1S1T9I-3" value="&lt;b&gt;&lt;font color=&quot;#cc0000&quot; style=&quot;font-size: 18px&quot;&gt;i&lt;/font&gt;&lt;/b&gt;" style="text;html=1;strokeColor=none;fillColor=none;align=center;verticalAlign=middle;whiteSpace=wrap;rounded=0;" parent="1" vertex="1">
          <mxGeometry x="130" y="310" width="40" height="20" as="geometry" />
        </mxCell>
        <mxCell id="whk0w1-pNkVPC_1S1T9I-5" value="" style="shape=flexArrow;endArrow=classic;html=1;fillColor=#eeeeee;strokeColor=#36393d;" parent="1" edge="1">
          <mxGeometry width="50" height="50" relative="1" as="geometry">
            <mxPoint x="339.5" y="260" as="sourcePoint" />
            <mxPoint x="339.5" y="360" as="targetPoint" />
          </mxGeometry>
        </mxCell>
        <mxCell id="whk0w1-pNkVPC_1S1T9I-6" value="" style="shape=table;html=1;whiteSpace=wrap;startSize=0;container=1;collapsible=0;childLayout=tableLayout;strokeWidth=2;" parent="1" vertex="1">
          <mxGeometry x="140" y="390" width="420" height="40" as="geometry" />
        </mxCell>
        <mxCell id="whk0w1-pNkVPC_1S1T9I-7" value="" style="shape=partialRectangle;html=1;whiteSpace=wrap;collapsible=0;dropTarget=0;pointerEvents=0;fillColor=none;top=0;left=0;bottom=0;right=0;points=[[0,0.5],[1,0.5]];portConstraint=eastwest;" parent="whk0w1-pNkVPC_1S1T9I-6" vertex="1">
          <mxGeometry width="420" height="40" as="geometry" />
        </mxCell>
        <mxCell id="whk0w1-pNkVPC_1S1T9I-8" value="&lt;b&gt;&lt;font style=&quot;font-size: 14px&quot;&gt;null&lt;/font&gt;&lt;/b&gt;" style="shape=partialRectangle;html=1;whiteSpace=wrap;connectable=0;overflow=hidden;fillColor=none;top=0;left=0;bottom=0;right=0;" parent="whk0w1-pNkVPC_1S1T9I-7" vertex="1">
          <mxGeometry width="60" height="40" as="geometry" />
        </mxCell>
        <mxCell id="whk0w1-pNkVPC_1S1T9I-9" value="&lt;b&gt;&lt;font style=&quot;font-size: 14px&quot; color=&quot;#ff0000&quot;&gt;entry&lt;/font&gt;&lt;/b&gt;" style="shape=partialRectangle;html=1;whiteSpace=wrap;connectable=0;overflow=hidden;fillColor=none;top=0;left=0;bottom=0;right=0;" parent="whk0w1-pNkVPC_1S1T9I-7" vertex="1">
          <mxGeometry x="60" width="60" height="40" as="geometry" />
        </mxCell>
        <mxCell id="whk0w1-pNkVPC_1S1T9I-10" value="&lt;font style=&quot;font-size: 14px&quot;&gt;&lt;b&gt;entry&lt;/b&gt;&lt;/font&gt;" style="shape=partialRectangle;html=1;whiteSpace=wrap;connectable=0;overflow=hidden;fillColor=none;top=0;left=0;bottom=0;right=0;" parent="whk0w1-pNkVPC_1S1T9I-7" vertex="1">
          <mxGeometry x="120" width="60" height="40" as="geometry" />
        </mxCell>
        <mxCell id="whk0w1-pNkVPC_1S1T9I-11" value="&lt;font style=&quot;font-size: 14px&quot;&gt;&lt;b&gt;null&lt;/b&gt;&lt;/font&gt;" style="shape=partialRectangle;html=1;whiteSpace=wrap;connectable=0;overflow=hidden;fillColor=none;top=0;left=0;bottom=0;right=0;" parent="whk0w1-pNkVPC_1S1T9I-7" vertex="1">
          <mxGeometry x="180" width="60" height="40" as="geometry" />
        </mxCell>
        <mxCell id="whk0w1-pNkVPC_1S1T9I-12" value="&lt;font style=&quot;font-size: 14px&quot;&gt;&lt;b&gt;entry&lt;/b&gt;&lt;/font&gt;" style="shape=partialRectangle;html=1;whiteSpace=wrap;connectable=0;overflow=hidden;fillColor=none;top=0;left=0;bottom=0;right=0;" parent="whk0w1-pNkVPC_1S1T9I-7" vertex="1">
          <mxGeometry x="240" width="60" height="40" as="geometry" />
        </mxCell>
        <mxCell id="whk0w1-pNkVPC_1S1T9I-13" value="&lt;font style=&quot;font-size: 14px&quot;&gt;&lt;b&gt;entry&lt;/b&gt;&lt;/font&gt;" style="shape=partialRectangle;html=1;whiteSpace=wrap;connectable=0;overflow=hidden;fillColor=none;top=0;left=0;bottom=0;right=0;" parent="whk0w1-pNkVPC_1S1T9I-7" vertex="1">
          <mxGeometry x="300" width="60" height="40" as="geometry" />
        </mxCell>
        <mxCell id="whk0w1-pNkVPC_1S1T9I-14" value="&lt;font style=&quot;font-size: 14px&quot;&gt;&lt;b&gt;null&lt;/b&gt;&lt;/font&gt;" style="shape=partialRectangle;html=1;whiteSpace=wrap;connectable=0;overflow=hidden;fillColor=none;top=0;left=0;bottom=0;right=0;" parent="whk0w1-pNkVPC_1S1T9I-7" vertex="1">
          <mxGeometry x="360" width="60" height="40" as="geometry" />
        </mxCell>
      </root>
    </mxGraphModel>
  </diagram>
  <diagram name="第 1 页 的副本" id="W48gPU6BhTxmuB7laGAR">
    <mxGraphModel dx="1038" dy="499" grid="1" gridSize="10" guides="1" tooltips="1" connect="1" arrows="1" fold="1" page="1" pageScale="1" pageWidth="827" pageHeight="1169" math="0" shadow="0">
      <root>
        <mxCell id="jDRO035iajg2x_lJ6upS-0" />
        <mxCell id="jDRO035iajg2x_lJ6upS-1" parent="jDRO035iajg2x_lJ6upS-0" />
        <mxCell id="jDRO035iajg2x_lJ6upS-2" value="" style="shape=table;html=1;whiteSpace=wrap;startSize=0;container=1;collapsible=0;childLayout=tableLayout;strokeWidth=2;" vertex="1" parent="jDRO035iajg2x_lJ6upS-1">
          <mxGeometry x="140" y="200" width="420" height="40" as="geometry" />
        </mxCell>
        <mxCell id="jDRO035iajg2x_lJ6upS-3" value="" style="shape=partialRectangle;html=1;whiteSpace=wrap;collapsible=0;dropTarget=0;pointerEvents=0;fillColor=none;top=0;left=0;bottom=0;right=0;points=[[0,0.5],[1,0.5]];portConstraint=eastwest;" vertex="1" parent="jDRO035iajg2x_lJ6upS-2">
          <mxGeometry width="420" height="40" as="geometry" />
        </mxCell>
        <mxCell id="jDRO035iajg2x_lJ6upS-4" value="&lt;b&gt;&lt;font style=&quot;font-size: 14px&quot;&gt;null&lt;/font&gt;&lt;/b&gt;" style="shape=partialRectangle;html=1;whiteSpace=wrap;connectable=0;overflow=hidden;fillColor=none;top=0;left=0;bottom=0;right=0;" vertex="1" parent="jDRO035iajg2x_lJ6upS-3">
          <mxGeometry width="60" height="40" as="geometry" />
        </mxCell>
        <mxCell id="jDRO035iajg2x_lJ6upS-5" value="&lt;b&gt;&lt;font style=&quot;font-size: 14px&quot;&gt;null&lt;/font&gt;&lt;/b&gt;" style="shape=partialRectangle;html=1;whiteSpace=wrap;connectable=0;overflow=hidden;fillColor=none;top=0;left=0;bottom=0;right=0;" vertex="1" parent="jDRO035iajg2x_lJ6upS-3">
          <mxGeometry x="60" width="60" height="40" as="geometry" />
        </mxCell>
        <mxCell id="jDRO035iajg2x_lJ6upS-6" value="&lt;font style=&quot;font-size: 14px&quot; color=&quot;#cc0000&quot;&gt;&lt;b&gt;entry&lt;/b&gt;&lt;/font&gt;" style="shape=partialRectangle;html=1;whiteSpace=wrap;connectable=0;overflow=hidden;fillColor=none;top=0;left=0;bottom=0;right=0;" vertex="1" parent="jDRO035iajg2x_lJ6upS-3">
          <mxGeometry x="120" width="60" height="40" as="geometry" />
        </mxCell>
        <mxCell id="jDRO035iajg2x_lJ6upS-7" value="&lt;font style=&quot;font-size: 14px&quot;&gt;&lt;b&gt;null&lt;/b&gt;&lt;/font&gt;" style="shape=partialRectangle;html=1;whiteSpace=wrap;connectable=0;overflow=hidden;fillColor=none;top=0;left=0;bottom=0;right=0;" vertex="1" parent="jDRO035iajg2x_lJ6upS-3">
          <mxGeometry x="180" width="60" height="40" as="geometry" />
        </mxCell>
        <mxCell id="jDRO035iajg2x_lJ6upS-8" value="&lt;font style=&quot;font-size: 14px&quot;&gt;&lt;b&gt;entry&lt;/b&gt;&lt;/font&gt;" style="shape=partialRectangle;html=1;whiteSpace=wrap;connectable=0;overflow=hidden;fillColor=none;top=0;left=0;bottom=0;right=0;" vertex="1" parent="jDRO035iajg2x_lJ6upS-3">
          <mxGeometry x="240" width="60" height="40" as="geometry" />
        </mxCell>
        <mxCell id="jDRO035iajg2x_lJ6upS-9" value="&lt;font style=&quot;font-size: 14px&quot;&gt;&lt;b&gt;entry&lt;/b&gt;&lt;/font&gt;" style="shape=partialRectangle;html=1;whiteSpace=wrap;connectable=0;overflow=hidden;fillColor=none;top=0;left=0;bottom=0;right=0;" vertex="1" parent="jDRO035iajg2x_lJ6upS-3">
          <mxGeometry x="300" width="60" height="40" as="geometry" />
        </mxCell>
        <mxCell id="jDRO035iajg2x_lJ6upS-10" value="&lt;font style=&quot;font-size: 14px&quot;&gt;&lt;b&gt;null&lt;/b&gt;&lt;/font&gt;" style="shape=partialRectangle;html=1;whiteSpace=wrap;connectable=0;overflow=hidden;fillColor=none;top=0;left=0;bottom=0;right=0;" vertex="1" parent="jDRO035iajg2x_lJ6upS-3">
          <mxGeometry x="360" width="60" height="40" as="geometry" />
        </mxCell>
        <mxCell id="jDRO035iajg2x_lJ6upS-11" value="0" style="text;html=1;strokeColor=none;fillColor=none;align=center;verticalAlign=middle;whiteSpace=wrap;rounded=0;" vertex="1" parent="jDRO035iajg2x_lJ6upS-1">
          <mxGeometry x="150" y="170" width="40" height="20" as="geometry" />
        </mxCell>
        <mxCell id="jDRO035iajg2x_lJ6upS-12" value="1" style="text;html=1;strokeColor=none;fillColor=none;align=center;verticalAlign=middle;whiteSpace=wrap;rounded=0;" vertex="1" parent="jDRO035iajg2x_lJ6upS-1">
          <mxGeometry x="200" y="170" width="40" height="20" as="geometry" />
        </mxCell>
        <mxCell id="jDRO035iajg2x_lJ6upS-13" value="2" style="text;html=1;strokeColor=none;fillColor=none;align=center;verticalAlign=middle;whiteSpace=wrap;rounded=0;" vertex="1" parent="jDRO035iajg2x_lJ6upS-1">
          <mxGeometry x="270" y="170" width="40" height="20" as="geometry" />
        </mxCell>
        <mxCell id="jDRO035iajg2x_lJ6upS-14" value="3" style="text;html=1;strokeColor=none;fillColor=none;align=center;verticalAlign=middle;whiteSpace=wrap;rounded=0;" vertex="1" parent="jDRO035iajg2x_lJ6upS-1">
          <mxGeometry x="320" y="170" width="40" height="20" as="geometry" />
        </mxCell>
        <mxCell id="jDRO035iajg2x_lJ6upS-15" value="4" style="text;html=1;strokeColor=none;fillColor=none;align=center;verticalAlign=middle;whiteSpace=wrap;rounded=0;" vertex="1" parent="jDRO035iajg2x_lJ6upS-1">
          <mxGeometry x="380" y="170" width="40" height="20" as="geometry" />
        </mxCell>
        <mxCell id="jDRO035iajg2x_lJ6upS-16" value="5" style="text;html=1;strokeColor=none;fillColor=none;align=center;verticalAlign=middle;whiteSpace=wrap;rounded=0;" vertex="1" parent="jDRO035iajg2x_lJ6upS-1">
          <mxGeometry x="450" y="170" width="40" height="20" as="geometry" />
        </mxCell>
        <mxCell id="jDRO035iajg2x_lJ6upS-17" value="6" style="text;html=1;strokeColor=none;fillColor=none;align=center;verticalAlign=middle;whiteSpace=wrap;rounded=0;" vertex="1" parent="jDRO035iajg2x_lJ6upS-1">
          <mxGeometry x="510" y="170" width="40" height="20" as="geometry" />
        </mxCell>
        <mxCell id="jDRO035iajg2x_lJ6upS-18" value="" style="endArrow=classic;html=1;strokeColor=#FF0000;" edge="1" parent="jDRO035iajg2x_lJ6upS-1">
          <mxGeometry width="50" height="50" relative="1" as="geometry">
            <mxPoint x="160" y="310" as="sourcePoint" />
            <mxPoint x="280" y="250" as="targetPoint" />
          </mxGeometry>
        </mxCell>
        <mxCell id="jDRO035iajg2x_lJ6upS-19" value="&lt;b&gt;&lt;font color=&quot;#cc0000&quot; style=&quot;font-size: 18px&quot;&gt;i&lt;/font&gt;&lt;/b&gt;" style="text;html=1;strokeColor=none;fillColor=none;align=center;verticalAlign=middle;whiteSpace=wrap;rounded=0;" vertex="1" parent="jDRO035iajg2x_lJ6upS-1">
          <mxGeometry x="130" y="310" width="40" height="20" as="geometry" />
        </mxCell>
        <mxCell id="jDRO035iajg2x_lJ6upS-20" value="&lt;b&gt;&lt;font color=&quot;#cc0000&quot; style=&quot;font-size: 18px&quot;&gt;i&lt;/font&gt;&lt;/b&gt;" style="text;html=1;strokeColor=none;fillColor=none;align=center;verticalAlign=middle;whiteSpace=wrap;rounded=0;" vertex="1" parent="jDRO035iajg2x_lJ6upS-1">
          <mxGeometry x="130" y="310" width="40" height="20" as="geometry" />
        </mxCell>
        <mxCell id="jDRO035iajg2x_lJ6upS-21" value="" style="shape=flexArrow;endArrow=classic;html=1;fillColor=#eeeeee;strokeColor=#36393d;" edge="1" parent="jDRO035iajg2x_lJ6upS-1">
          <mxGeometry width="50" height="50" relative="1" as="geometry">
            <mxPoint x="339.5" y="260" as="sourcePoint" />
            <mxPoint x="339.5" y="360" as="targetPoint" />
          </mxGeometry>
        </mxCell>
        <mxCell id="jDRO035iajg2x_lJ6upS-22" value="" style="shape=table;html=1;whiteSpace=wrap;startSize=0;container=1;collapsible=0;childLayout=tableLayout;strokeWidth=2;" vertex="1" parent="jDRO035iajg2x_lJ6upS-1">
          <mxGeometry x="140" y="390" width="420" height="40" as="geometry" />
        </mxCell>
        <mxCell id="jDRO035iajg2x_lJ6upS-23" value="" style="shape=partialRectangle;html=1;whiteSpace=wrap;collapsible=0;dropTarget=0;pointerEvents=0;fillColor=none;top=0;left=0;bottom=0;right=0;points=[[0,0.5],[1,0.5]];portConstraint=eastwest;" vertex="1" parent="jDRO035iajg2x_lJ6upS-22">
          <mxGeometry width="420" height="40" as="geometry" />
        </mxCell>
        <mxCell id="jDRO035iajg2x_lJ6upS-24" value="&lt;b&gt;&lt;font style=&quot;font-size: 14px&quot;&gt;null&lt;/font&gt;&lt;/b&gt;" style="shape=partialRectangle;html=1;whiteSpace=wrap;connectable=0;overflow=hidden;fillColor=none;top=0;left=0;bottom=0;right=0;" vertex="1" parent="jDRO035iajg2x_lJ6upS-23">
          <mxGeometry width="60" height="40" as="geometry" />
        </mxCell>
        <mxCell id="jDRO035iajg2x_lJ6upS-25" value="&lt;b&gt;&lt;font style=&quot;font-size: 14px&quot;&gt;null&lt;/font&gt;&lt;/b&gt;" style="shape=partialRectangle;html=1;whiteSpace=wrap;connectable=0;overflow=hidden;fillColor=none;top=0;left=0;bottom=0;right=0;" vertex="1" parent="jDRO035iajg2x_lJ6upS-23">
          <mxGeometry x="60" width="60" height="40" as="geometry" />
        </mxCell>
        <mxCell id="jDRO035iajg2x_lJ6upS-26" value="&lt;font style=&quot;font-size: 14px&quot; color=&quot;#006600&quot;&gt;&lt;b&gt;entry&lt;/b&gt;&lt;/font&gt;" style="shape=partialRectangle;html=1;whiteSpace=wrap;connectable=0;overflow=hidden;fillColor=none;top=0;left=0;bottom=0;right=0;" vertex="1" parent="jDRO035iajg2x_lJ6upS-23">
          <mxGeometry x="120" width="60" height="40" as="geometry" />
        </mxCell>
        <mxCell id="jDRO035iajg2x_lJ6upS-27" value="&lt;font style=&quot;font-size: 14px&quot;&gt;&lt;b&gt;null&lt;/b&gt;&lt;/font&gt;" style="shape=partialRectangle;html=1;whiteSpace=wrap;connectable=0;overflow=hidden;fillColor=none;top=0;left=0;bottom=0;right=0;" vertex="1" parent="jDRO035iajg2x_lJ6upS-23">
          <mxGeometry x="180" width="60" height="40" as="geometry" />
        </mxCell>
        <mxCell id="jDRO035iajg2x_lJ6upS-28" value="&lt;font style=&quot;font-size: 14px&quot;&gt;&lt;b&gt;entry&lt;/b&gt;&lt;/font&gt;" style="shape=partialRectangle;html=1;whiteSpace=wrap;connectable=0;overflow=hidden;fillColor=none;top=0;left=0;bottom=0;right=0;" vertex="1" parent="jDRO035iajg2x_lJ6upS-23">
          <mxGeometry x="240" width="60" height="40" as="geometry" />
        </mxCell>
        <mxCell id="jDRO035iajg2x_lJ6upS-29" value="&lt;font style=&quot;font-size: 14px&quot;&gt;&lt;b&gt;entry&lt;/b&gt;&lt;/font&gt;" style="shape=partialRectangle;html=1;whiteSpace=wrap;connectable=0;overflow=hidden;fillColor=none;top=0;left=0;bottom=0;right=0;" vertex="1" parent="jDRO035iajg2x_lJ6upS-23">
          <mxGeometry x="300" width="60" height="40" as="geometry" />
        </mxCell>
        <mxCell id="jDRO035iajg2x_lJ6upS-30" value="&lt;font style=&quot;font-size: 14px&quot;&gt;&lt;b&gt;null&lt;/b&gt;&lt;/font&gt;" style="shape=partialRectangle;html=1;whiteSpace=wrap;connectable=0;overflow=hidden;fillColor=none;top=0;left=0;bottom=0;right=0;" vertex="1" parent="jDRO035iajg2x_lJ6upS-23">
          <mxGeometry x="360" width="60" height="40" as="geometry" />
        </mxCell>
        <mxCell id="4kcFEd597DT2cyFKobhc-0" value="0" style="text;html=1;strokeColor=none;fillColor=none;align=center;verticalAlign=middle;whiteSpace=wrap;rounded=0;" vertex="1" parent="jDRO035iajg2x_lJ6upS-1">
          <mxGeometry x="150" y="360" width="40" height="20" as="geometry" />
        </mxCell>
        <mxCell id="4kcFEd597DT2cyFKobhc-1" value="1" style="text;html=1;strokeColor=none;fillColor=none;align=center;verticalAlign=middle;whiteSpace=wrap;rounded=0;" vertex="1" parent="jDRO035iajg2x_lJ6upS-1">
          <mxGeometry x="200" y="360" width="40" height="20" as="geometry" />
        </mxCell>
        <mxCell id="4kcFEd597DT2cyFKobhc-2" value="2" style="text;html=1;strokeColor=none;fillColor=none;align=center;verticalAlign=middle;whiteSpace=wrap;rounded=0;" vertex="1" parent="jDRO035iajg2x_lJ6upS-1">
          <mxGeometry x="270" y="360" width="40" height="20" as="geometry" />
        </mxCell>
        <mxCell id="4kcFEd597DT2cyFKobhc-3" value="3" style="text;html=1;strokeColor=none;fillColor=none;align=center;verticalAlign=middle;whiteSpace=wrap;rounded=0;" vertex="1" parent="jDRO035iajg2x_lJ6upS-1">
          <mxGeometry x="320" y="360" width="40" height="20" as="geometry" />
        </mxCell>
        <mxCell id="4kcFEd597DT2cyFKobhc-4" value="4" style="text;html=1;strokeColor=none;fillColor=none;align=center;verticalAlign=middle;whiteSpace=wrap;rounded=0;" vertex="1" parent="jDRO035iajg2x_lJ6upS-1">
          <mxGeometry x="380" y="360" width="40" height="20" as="geometry" />
        </mxCell>
        <mxCell id="4kcFEd597DT2cyFKobhc-5" value="5" style="text;html=1;strokeColor=none;fillColor=none;align=center;verticalAlign=middle;whiteSpace=wrap;rounded=0;" vertex="1" parent="jDRO035iajg2x_lJ6upS-1">
          <mxGeometry x="450" y="360" width="40" height="20" as="geometry" />
        </mxCell>
        <mxCell id="4kcFEd597DT2cyFKobhc-6" value="6" style="text;html=1;strokeColor=none;fillColor=none;align=center;verticalAlign=middle;whiteSpace=wrap;rounded=0;" vertex="1" parent="jDRO035iajg2x_lJ6upS-1">
          <mxGeometry x="510" y="360" width="40" height="20" as="geometry" />
        </mxCell>
      </root>
    </mxGraphModel>
  </diagram>
  <diagram name="第 1 页 的副本" id="LfeqPUKDTq1jG0kztfsE">
    <mxGraphModel dx="1038" dy="499" grid="1" gridSize="10" guides="1" tooltips="1" connect="1" arrows="1" fold="1" page="1" pageScale="1" pageWidth="827" pageHeight="1169" math="0" shadow="0">
      <root>
        <mxCell id="1Rouq6DL-BScm2Y6npds-0" />
        <mxCell id="1Rouq6DL-BScm2Y6npds-1" parent="1Rouq6DL-BScm2Y6npds-0" />
        <mxCell id="1Rouq6DL-BScm2Y6npds-2" value="" style="shape=table;html=1;whiteSpace=wrap;startSize=0;container=1;collapsible=0;childLayout=tableLayout;strokeWidth=2;" parent="1Rouq6DL-BScm2Y6npds-1" vertex="1">
          <mxGeometry x="130" y="270" width="420" height="40" as="geometry" />
        </mxCell>
        <mxCell id="1Rouq6DL-BScm2Y6npds-3" value="" style="shape=partialRectangle;html=1;whiteSpace=wrap;collapsible=0;dropTarget=0;pointerEvents=0;fillColor=none;top=0;left=0;bottom=0;right=0;points=[[0,0.5],[1,0.5]];portConstraint=eastwest;" parent="1Rouq6DL-BScm2Y6npds-2" vertex="1">
          <mxGeometry width="420" height="40" as="geometry" />
        </mxCell>
        <mxCell id="1Rouq6DL-BScm2Y6npds-4" value="&lt;b&gt;&lt;font style=&quot;font-size: 14px&quot;&gt;null&lt;/font&gt;&lt;/b&gt;" style="shape=partialRectangle;html=1;whiteSpace=wrap;connectable=0;overflow=hidden;fillColor=none;top=0;left=0;bottom=0;right=0;" parent="1Rouq6DL-BScm2Y6npds-3" vertex="1">
          <mxGeometry width="60" height="40" as="geometry" />
        </mxCell>
        <mxCell id="1Rouq6DL-BScm2Y6npds-5" value="&lt;b&gt;&lt;font style=&quot;font-size: 14px&quot;&gt;null&lt;/font&gt;&lt;/b&gt;" style="shape=partialRectangle;html=1;whiteSpace=wrap;connectable=0;overflow=hidden;fillColor=none;top=0;left=0;bottom=0;right=0;" parent="1Rouq6DL-BScm2Y6npds-3" vertex="1">
          <mxGeometry x="60" width="60" height="40" as="geometry" />
        </mxCell>
        <mxCell id="1Rouq6DL-BScm2Y6npds-6" value="&lt;font style=&quot;font-size: 14px&quot;&gt;&lt;b&gt;entry&lt;/b&gt;&lt;/font&gt;" style="shape=partialRectangle;html=1;whiteSpace=wrap;connectable=0;overflow=hidden;fillColor=none;top=0;left=0;bottom=0;right=0;" parent="1Rouq6DL-BScm2Y6npds-3" vertex="1">
          <mxGeometry x="120" width="60" height="40" as="geometry" />
        </mxCell>
        <mxCell id="1Rouq6DL-BScm2Y6npds-7" value="&lt;font style=&quot;font-size: 14px&quot;&gt;&lt;b&gt;null&lt;/b&gt;&lt;/font&gt;" style="shape=partialRectangle;html=1;whiteSpace=wrap;connectable=0;overflow=hidden;fillColor=none;top=0;left=0;bottom=0;right=0;" parent="1Rouq6DL-BScm2Y6npds-3" vertex="1">
          <mxGeometry x="180" width="60" height="40" as="geometry" />
        </mxCell>
        <mxCell id="1Rouq6DL-BScm2Y6npds-8" value="&lt;font style=&quot;font-size: 14px&quot;&gt;&lt;b&gt;entry&lt;/b&gt;&lt;/font&gt;" style="shape=partialRectangle;html=1;whiteSpace=wrap;connectable=0;overflow=hidden;fillColor=none;top=0;left=0;bottom=0;right=0;" parent="1Rouq6DL-BScm2Y6npds-3" vertex="1">
          <mxGeometry x="240" width="60" height="40" as="geometry" />
        </mxCell>
        <mxCell id="1Rouq6DL-BScm2Y6npds-9" value="&lt;font style=&quot;font-size: 14px&quot;&gt;&lt;b&gt;entry&lt;/b&gt;&lt;/font&gt;" style="shape=partialRectangle;html=1;whiteSpace=wrap;connectable=0;overflow=hidden;fillColor=none;top=0;left=0;bottom=0;right=0;" parent="1Rouq6DL-BScm2Y6npds-3" vertex="1">
          <mxGeometry x="300" width="60" height="40" as="geometry" />
        </mxCell>
        <mxCell id="1Rouq6DL-BScm2Y6npds-10" value="&lt;font style=&quot;font-size: 14px&quot;&gt;&lt;b&gt;null&lt;/b&gt;&lt;/font&gt;" style="shape=partialRectangle;html=1;whiteSpace=wrap;connectable=0;overflow=hidden;fillColor=none;top=0;left=0;bottom=0;right=0;" parent="1Rouq6DL-BScm2Y6npds-3" vertex="1">
          <mxGeometry x="360" width="60" height="40" as="geometry" />
        </mxCell>
        <mxCell id="1Rouq6DL-BScm2Y6npds-11" value="0" style="text;html=1;strokeColor=none;fillColor=none;align=center;verticalAlign=middle;whiteSpace=wrap;rounded=0;" parent="1Rouq6DL-BScm2Y6npds-1" vertex="1">
          <mxGeometry x="140" y="240" width="40" height="20" as="geometry" />
        </mxCell>
        <mxCell id="1Rouq6DL-BScm2Y6npds-12" value="1" style="text;html=1;strokeColor=none;fillColor=none;align=center;verticalAlign=middle;whiteSpace=wrap;rounded=0;" parent="1Rouq6DL-BScm2Y6npds-1" vertex="1">
          <mxGeometry x="190" y="240" width="40" height="20" as="geometry" />
        </mxCell>
        <mxCell id="1Rouq6DL-BScm2Y6npds-13" value="2" style="text;html=1;strokeColor=none;fillColor=none;align=center;verticalAlign=middle;whiteSpace=wrap;rounded=0;" parent="1Rouq6DL-BScm2Y6npds-1" vertex="1">
          <mxGeometry x="260" y="240" width="40" height="20" as="geometry" />
        </mxCell>
        <mxCell id="1Rouq6DL-BScm2Y6npds-14" value="3" style="text;html=1;strokeColor=none;fillColor=none;align=center;verticalAlign=middle;whiteSpace=wrap;rounded=0;" parent="1Rouq6DL-BScm2Y6npds-1" vertex="1">
          <mxGeometry x="310" y="240" width="40" height="20" as="geometry" />
        </mxCell>
        <mxCell id="1Rouq6DL-BScm2Y6npds-15" value="4" style="text;html=1;strokeColor=none;fillColor=none;align=center;verticalAlign=middle;whiteSpace=wrap;rounded=0;" parent="1Rouq6DL-BScm2Y6npds-1" vertex="1">
          <mxGeometry x="370" y="240" width="40" height="20" as="geometry" />
        </mxCell>
        <mxCell id="1Rouq6DL-BScm2Y6npds-16" value="5" style="text;html=1;strokeColor=none;fillColor=none;align=center;verticalAlign=middle;whiteSpace=wrap;rounded=0;" parent="1Rouq6DL-BScm2Y6npds-1" vertex="1">
          <mxGeometry x="440" y="240" width="40" height="20" as="geometry" />
        </mxCell>
        <mxCell id="1Rouq6DL-BScm2Y6npds-17" value="6" style="text;html=1;strokeColor=none;fillColor=none;align=center;verticalAlign=middle;whiteSpace=wrap;rounded=0;" parent="1Rouq6DL-BScm2Y6npds-1" vertex="1">
          <mxGeometry x="500" y="240" width="40" height="20" as="geometry" />
        </mxCell>
        <mxCell id="1Rouq6DL-BScm2Y6npds-19" value="&lt;b&gt;&lt;font color=&quot;#cc0000&quot; style=&quot;font-size: 18px&quot;&gt;i&lt;/font&gt;&lt;/b&gt;" style="text;html=1;strokeColor=none;fillColor=none;align=center;verticalAlign=middle;whiteSpace=wrap;rounded=0;" parent="1Rouq6DL-BScm2Y6npds-1" vertex="1">
          <mxGeometry x="125" y="400" width="40" height="20" as="geometry" />
        </mxCell>
        <mxCell id="buWnkg_E1tYjkBy136A_-0" value="" style="shape=flexArrow;endArrow=classic;html=1;fillColor=#cdeb8b;strokeColor=#36393d;" parent="1Rouq6DL-BScm2Y6npds-1" edge="1">
          <mxGeometry width="50" height="50" relative="1" as="geometry">
            <mxPoint x="339.5" y="330" as="sourcePoint" />
            <mxPoint x="339.5" y="420" as="targetPoint" />
          </mxGeometry>
        </mxCell>
        <mxCell id="6K15yNTjmK0riosyUwK--0" value="" style="endArrow=classic;html=1;strokeColor=#FF0000;" parent="1Rouq6DL-BScm2Y6npds-1" edge="1">
          <mxGeometry width="50" height="50" relative="1" as="geometry">
            <mxPoint x="155" y="400" as="sourcePoint" />
            <mxPoint x="275" y="340" as="targetPoint" />
          </mxGeometry>
        </mxCell>
        <mxCell id="6K15yNTjmK0riosyUwK--1" value="" style="shape=table;html=1;whiteSpace=wrap;startSize=0;container=1;collapsible=0;childLayout=tableLayout;strokeWidth=2;" parent="1Rouq6DL-BScm2Y6npds-1" vertex="1">
          <mxGeometry x="130" y="490" width="420" height="40" as="geometry" />
        </mxCell>
        <mxCell id="6K15yNTjmK0riosyUwK--2" value="" style="shape=partialRectangle;html=1;whiteSpace=wrap;collapsible=0;dropTarget=0;pointerEvents=0;fillColor=none;top=0;left=0;bottom=0;right=0;points=[[0,0.5],[1,0.5]];portConstraint=eastwest;" parent="6K15yNTjmK0riosyUwK--1" vertex="1">
          <mxGeometry width="420" height="40" as="geometry" />
        </mxCell>
        <mxCell id="6K15yNTjmK0riosyUwK--3" value="&lt;b&gt;&lt;font style=&quot;font-size: 14px&quot;&gt;null&lt;/font&gt;&lt;/b&gt;" style="shape=partialRectangle;html=1;whiteSpace=wrap;connectable=0;overflow=hidden;fillColor=none;top=0;left=0;bottom=0;right=0;" parent="6K15yNTjmK0riosyUwK--2" vertex="1">
          <mxGeometry width="60" height="40" as="geometry" />
        </mxCell>
        <mxCell id="6K15yNTjmK0riosyUwK--4" value="&lt;b&gt;&lt;font style=&quot;font-size: 14px&quot;&gt;null&lt;/font&gt;&lt;/b&gt;" style="shape=partialRectangle;html=1;whiteSpace=wrap;connectable=0;overflow=hidden;fillColor=none;top=0;left=0;bottom=0;right=0;" parent="6K15yNTjmK0riosyUwK--2" vertex="1">
          <mxGeometry x="60" width="60" height="40" as="geometry" />
        </mxCell>
        <mxCell id="6K15yNTjmK0riosyUwK--5" value="&lt;font style=&quot;font-size: 14px&quot;&gt;&lt;b&gt;entry&lt;/b&gt;&lt;/font&gt;" style="shape=partialRectangle;html=1;whiteSpace=wrap;connectable=0;overflow=hidden;fillColor=none;top=0;left=0;bottom=0;right=0;" parent="6K15yNTjmK0riosyUwK--2" vertex="1">
          <mxGeometry x="120" width="60" height="40" as="geometry" />
        </mxCell>
        <mxCell id="6K15yNTjmK0riosyUwK--6" value="&lt;font style=&quot;font-size: 14px&quot;&gt;&lt;b&gt;null&lt;/b&gt;&lt;/font&gt;" style="shape=partialRectangle;html=1;whiteSpace=wrap;connectable=0;overflow=hidden;fillColor=none;top=0;left=0;bottom=0;right=0;" parent="6K15yNTjmK0riosyUwK--2" vertex="1">
          <mxGeometry x="180" width="60" height="40" as="geometry" />
        </mxCell>
        <mxCell id="6K15yNTjmK0riosyUwK--7" value="&lt;font style=&quot;font-size: 14px&quot;&gt;&lt;b&gt;entry&lt;/b&gt;&lt;/font&gt;" style="shape=partialRectangle;html=1;whiteSpace=wrap;connectable=0;overflow=hidden;fillColor=none;top=0;left=0;bottom=0;right=0;" parent="6K15yNTjmK0riosyUwK--2" vertex="1">
          <mxGeometry x="240" width="60" height="40" as="geometry" />
        </mxCell>
        <mxCell id="6K15yNTjmK0riosyUwK--8" value="&lt;font style=&quot;font-size: 14px&quot;&gt;&lt;b&gt;entry&lt;/b&gt;&lt;/font&gt;" style="shape=partialRectangle;html=1;whiteSpace=wrap;connectable=0;overflow=hidden;fillColor=none;top=0;left=0;bottom=0;right=0;" parent="6K15yNTjmK0riosyUwK--2" vertex="1">
          <mxGeometry x="300" width="60" height="40" as="geometry" />
        </mxCell>
        <mxCell id="6K15yNTjmK0riosyUwK--9" value="&lt;font style=&quot;font-size: 14px&quot;&gt;&lt;b&gt;null&lt;/b&gt;&lt;/font&gt;" style="shape=partialRectangle;html=1;whiteSpace=wrap;connectable=0;overflow=hidden;fillColor=none;top=0;left=0;bottom=0;right=0;" parent="6K15yNTjmK0riosyUwK--2" vertex="1">
          <mxGeometry x="360" width="60" height="40" as="geometry" />
        </mxCell>
        <mxCell id="6K15yNTjmK0riosyUwK--10" value="0" style="text;html=1;strokeColor=none;fillColor=none;align=center;verticalAlign=middle;whiteSpace=wrap;rounded=0;" parent="1Rouq6DL-BScm2Y6npds-1" vertex="1">
          <mxGeometry x="140" y="460" width="40" height="20" as="geometry" />
        </mxCell>
        <mxCell id="6K15yNTjmK0riosyUwK--11" value="1" style="text;html=1;strokeColor=none;fillColor=none;align=center;verticalAlign=middle;whiteSpace=wrap;rounded=0;" parent="1Rouq6DL-BScm2Y6npds-1" vertex="1">
          <mxGeometry x="190" y="460" width="40" height="20" as="geometry" />
        </mxCell>
        <mxCell id="6K15yNTjmK0riosyUwK--12" value="2" style="text;html=1;strokeColor=none;fillColor=none;align=center;verticalAlign=middle;whiteSpace=wrap;rounded=0;" parent="1Rouq6DL-BScm2Y6npds-1" vertex="1">
          <mxGeometry x="260" y="460" width="40" height="20" as="geometry" />
        </mxCell>
        <mxCell id="6K15yNTjmK0riosyUwK--13" value="3" style="text;html=1;strokeColor=none;fillColor=none;align=center;verticalAlign=middle;whiteSpace=wrap;rounded=0;" parent="1Rouq6DL-BScm2Y6npds-1" vertex="1">
          <mxGeometry x="310" y="460" width="40" height="20" as="geometry" />
        </mxCell>
        <mxCell id="6K15yNTjmK0riosyUwK--14" value="4" style="text;html=1;strokeColor=none;fillColor=none;align=center;verticalAlign=middle;whiteSpace=wrap;rounded=0;" parent="1Rouq6DL-BScm2Y6npds-1" vertex="1">
          <mxGeometry x="370" y="460" width="40" height="20" as="geometry" />
        </mxCell>
        <mxCell id="6K15yNTjmK0riosyUwK--15" value="5" style="text;html=1;strokeColor=none;fillColor=none;align=center;verticalAlign=middle;whiteSpace=wrap;rounded=0;" parent="1Rouq6DL-BScm2Y6npds-1" vertex="1">
          <mxGeometry x="440" y="460" width="40" height="20" as="geometry" />
        </mxCell>
        <mxCell id="6K15yNTjmK0riosyUwK--16" value="6" style="text;html=1;strokeColor=none;fillColor=none;align=center;verticalAlign=middle;whiteSpace=wrap;rounded=0;" parent="1Rouq6DL-BScm2Y6npds-1" vertex="1">
          <mxGeometry x="500" y="460" width="40" height="20" as="geometry" />
        </mxCell>
        <mxCell id="6K15yNTjmK0riosyUwK--17" value="" style="endArrow=classic;html=1;strokeColor=#FF0000;" parent="1Rouq6DL-BScm2Y6npds-1" edge="1">
          <mxGeometry width="50" height="50" relative="1" as="geometry">
            <mxPoint x="150" y="600" as="sourcePoint" />
            <mxPoint x="340" y="540" as="targetPoint" />
          </mxGeometry>
        </mxCell>
        <mxCell id="6K15yNTjmK0riosyUwK--18" value="&lt;b&gt;&lt;font color=&quot;#cc0000&quot; style=&quot;font-size: 18px&quot;&gt;i&lt;/font&gt;&lt;/b&gt;" style="text;html=1;strokeColor=none;fillColor=none;align=center;verticalAlign=middle;whiteSpace=wrap;rounded=0;" parent="1Rouq6DL-BScm2Y6npds-1" vertex="1">
          <mxGeometry x="120" y="600" width="40" height="20" as="geometry" />
        </mxCell>
        <mxCell id="6MnajMubba1ODHSLOrUM-0" value="&lt;font style=&quot;font-size: 14px&quot;&gt;&lt;b&gt;找到空位置&lt;/b&gt;&lt;/font&gt;" style="text;html=1;strokeColor=none;fillColor=none;align=center;verticalAlign=middle;whiteSpace=wrap;rounded=0;" vertex="1" parent="1Rouq6DL-BScm2Y6npds-1">
          <mxGeometry x="165" y="540" width="110" height="25" as="geometry" />
        </mxCell>
        <mxCell id="6MnajMubba1ODHSLOrUM-1" value="" style="shape=flexArrow;endArrow=classic;html=1;fillColor=#cdeb8b;strokeColor=#36393d;" edge="1" parent="1Rouq6DL-BScm2Y6npds-1">
          <mxGeometry width="50" height="50" relative="1" as="geometry">
            <mxPoint x="349" y="575" as="sourcePoint" />
            <mxPoint x="349" y="665" as="targetPoint" />
          </mxGeometry>
        </mxCell>
        <mxCell id="6MnajMubba1ODHSLOrUM-2" value="" style="shape=table;html=1;whiteSpace=wrap;startSize=0;container=1;collapsible=0;childLayout=tableLayout;strokeWidth=2;" vertex="1" parent="1Rouq6DL-BScm2Y6npds-1">
          <mxGeometry x="130" y="710" width="420" height="40" as="geometry" />
        </mxCell>
        <mxCell id="6MnajMubba1ODHSLOrUM-3" value="" style="shape=partialRectangle;html=1;whiteSpace=wrap;collapsible=0;dropTarget=0;pointerEvents=0;fillColor=none;top=0;left=0;bottom=0;right=0;points=[[0,0.5],[1,0.5]];portConstraint=eastwest;" vertex="1" parent="6MnajMubba1ODHSLOrUM-2">
          <mxGeometry width="420" height="40" as="geometry" />
        </mxCell>
        <mxCell id="6MnajMubba1ODHSLOrUM-4" value="&lt;b&gt;&lt;font style=&quot;font-size: 14px&quot;&gt;null&lt;/font&gt;&lt;/b&gt;" style="shape=partialRectangle;html=1;whiteSpace=wrap;connectable=0;overflow=hidden;fillColor=none;top=0;left=0;bottom=0;right=0;" vertex="1" parent="6MnajMubba1ODHSLOrUM-3">
          <mxGeometry width="60" height="40" as="geometry" />
        </mxCell>
        <mxCell id="6MnajMubba1ODHSLOrUM-5" value="&lt;b&gt;&lt;font style=&quot;font-size: 14px&quot;&gt;null&lt;/font&gt;&lt;/b&gt;" style="shape=partialRectangle;html=1;whiteSpace=wrap;connectable=0;overflow=hidden;fillColor=none;top=0;left=0;bottom=0;right=0;" vertex="1" parent="6MnajMubba1ODHSLOrUM-3">
          <mxGeometry x="60" width="60" height="40" as="geometry" />
        </mxCell>
        <mxCell id="6MnajMubba1ODHSLOrUM-6" value="&lt;font style=&quot;font-size: 14px&quot;&gt;&lt;b&gt;entry&lt;/b&gt;&lt;/font&gt;" style="shape=partialRectangle;html=1;whiteSpace=wrap;connectable=0;overflow=hidden;fillColor=none;top=0;left=0;bottom=0;right=0;" vertex="1" parent="6MnajMubba1ODHSLOrUM-3">
          <mxGeometry x="120" width="60" height="40" as="geometry" />
        </mxCell>
        <mxCell id="6MnajMubba1ODHSLOrUM-7" value="&lt;font style=&quot;font-size: 14px&quot; color=&quot;#ff0000&quot;&gt;&lt;b&gt;entry&lt;/b&gt;&lt;/font&gt;" style="shape=partialRectangle;html=1;whiteSpace=wrap;connectable=0;overflow=hidden;fillColor=none;top=0;left=0;bottom=0;right=0;" vertex="1" parent="6MnajMubba1ODHSLOrUM-3">
          <mxGeometry x="180" width="60" height="40" as="geometry" />
        </mxCell>
        <mxCell id="6MnajMubba1ODHSLOrUM-8" value="&lt;font style=&quot;font-size: 14px&quot;&gt;&lt;b&gt;entry&lt;/b&gt;&lt;/font&gt;" style="shape=partialRectangle;html=1;whiteSpace=wrap;connectable=0;overflow=hidden;fillColor=none;top=0;left=0;bottom=0;right=0;" vertex="1" parent="6MnajMubba1ODHSLOrUM-3">
          <mxGeometry x="240" width="60" height="40" as="geometry" />
        </mxCell>
        <mxCell id="6MnajMubba1ODHSLOrUM-9" value="&lt;font style=&quot;font-size: 14px&quot;&gt;&lt;b&gt;entry&lt;/b&gt;&lt;/font&gt;" style="shape=partialRectangle;html=1;whiteSpace=wrap;connectable=0;overflow=hidden;fillColor=none;top=0;left=0;bottom=0;right=0;" vertex="1" parent="6MnajMubba1ODHSLOrUM-3">
          <mxGeometry x="300" width="60" height="40" as="geometry" />
        </mxCell>
        <mxCell id="6MnajMubba1ODHSLOrUM-10" value="&lt;font style=&quot;font-size: 14px&quot;&gt;&lt;b&gt;null&lt;/b&gt;&lt;/font&gt;" style="shape=partialRectangle;html=1;whiteSpace=wrap;connectable=0;overflow=hidden;fillColor=none;top=0;left=0;bottom=0;right=0;" vertex="1" parent="6MnajMubba1ODHSLOrUM-3">
          <mxGeometry x="360" width="60" height="40" as="geometry" />
        </mxCell>
        <mxCell id="NnHLmJExneQgSiAdI87S-0" value="0" style="text;html=1;strokeColor=none;fillColor=none;align=center;verticalAlign=middle;whiteSpace=wrap;rounded=0;" vertex="1" parent="1Rouq6DL-BScm2Y6npds-1">
          <mxGeometry x="140" y="680" width="40" height="20" as="geometry" />
        </mxCell>
        <mxCell id="NnHLmJExneQgSiAdI87S-1" value="1" style="text;html=1;strokeColor=none;fillColor=none;align=center;verticalAlign=middle;whiteSpace=wrap;rounded=0;" vertex="1" parent="1Rouq6DL-BScm2Y6npds-1">
          <mxGeometry x="190" y="680" width="40" height="20" as="geometry" />
        </mxCell>
        <mxCell id="NnHLmJExneQgSiAdI87S-2" value="2" style="text;html=1;strokeColor=none;fillColor=none;align=center;verticalAlign=middle;whiteSpace=wrap;rounded=0;" vertex="1" parent="1Rouq6DL-BScm2Y6npds-1">
          <mxGeometry x="260" y="680" width="40" height="20" as="geometry" />
        </mxCell>
        <mxCell id="NnHLmJExneQgSiAdI87S-3" value="3" style="text;html=1;strokeColor=none;fillColor=none;align=center;verticalAlign=middle;whiteSpace=wrap;rounded=0;" vertex="1" parent="1Rouq6DL-BScm2Y6npds-1">
          <mxGeometry x="310" y="680" width="40" height="20" as="geometry" />
        </mxCell>
        <mxCell id="NnHLmJExneQgSiAdI87S-4" value="4" style="text;html=1;strokeColor=none;fillColor=none;align=center;verticalAlign=middle;whiteSpace=wrap;rounded=0;" vertex="1" parent="1Rouq6DL-BScm2Y6npds-1">
          <mxGeometry x="370" y="680" width="40" height="20" as="geometry" />
        </mxCell>
        <mxCell id="NnHLmJExneQgSiAdI87S-5" value="5" style="text;html=1;strokeColor=none;fillColor=none;align=center;verticalAlign=middle;whiteSpace=wrap;rounded=0;" vertex="1" parent="1Rouq6DL-BScm2Y6npds-1">
          <mxGeometry x="440" y="680" width="40" height="20" as="geometry" />
        </mxCell>
        <mxCell id="NnHLmJExneQgSiAdI87S-6" value="6" style="text;html=1;strokeColor=none;fillColor=none;align=center;verticalAlign=middle;whiteSpace=wrap;rounded=0;" vertex="1" parent="1Rouq6DL-BScm2Y6npds-1">
          <mxGeometry x="510" y="680" width="40" height="20" as="geometry" />
        </mxCell>
      </root>
    </mxGraphModel>
  </diagram>
</mxfile>
